<svg xmlns="http://www.w3.org/2000/svg" viewBox="0 0 500 500"><g id="freepik--background-complete--inject-3"><rect x="29.7" y="71.64" width="174.97" height="290.23" style="fill:#ebebeb"></rect><rect x="42.84" y="86.09" width="148.7" height="185.49" style="fill:#fff"></rect><polygon points="50.96 391.07 40.82 391.07 40.82 361.87 58.86 361.87 50.96 391.07" style="fill:#ebebeb"></polygon><polygon points="58.86 361.86 55.95 372.63 40.82 372.63 40.82 361.86 58.86 361.86" style="fill:#c7c7c7"></polygon><polygon points="183.42 391.07 193.56 391.07 193.56 361.87 175.52 361.87 183.42 391.07" style="fill:#ebebeb"></polygon><polygon points="175.52 361.86 178.44 372.63 193.56 372.63 193.56 361.86 175.52 361.86" style="fill:#c7c7c7"></polygon><path d="M191.54,283.5q-17,.27-34,.35c-11.32.11-22.64.09-34,.13l.48-.48c0,4.79,0,9.58,0,14.37L124,312.23c-.1,9.58-.19,19.16-.41,28.74-.23-9.58-.32-19.16-.42-28.74l0-14.36c0-4.79,0-9.58,0-14.37V283h.48c11.32,0,22.64,0,34,.13S180.22,283.32,191.54,283.5Z" style="fill:#c7c7c7"></path><path d="M123.62,349.17q17-.27,34-.36c11.32-.11,22.64-.08,34-.12l-.48.48c0-4.7,0-9.39,0-14.09l.06-14.1c.09-9.39.18-18.79.4-28.18.23,9.39.32,18.79.41,28.18l.06,14.1c0,4.7.05,9.39,0,14.09v.49h-.48c-11.32-.05-22.64,0-34-.13S134.94,349.36,123.62,349.17Z" style="fill:#c7c7c7"></path><rect x="130.02" y="307.03" width="4.32" height="16.58" transform="translate(264.36 630.65) rotate(180)" style="fill:#c7c7c7"></rect><path d="M42.84,283.5q17-.27,34-.35c11.32-.11,22.64-.09,34-.13h.48v.48c0,4.79,0,9.58,0,14.37l0,14.36c-.1,9.58-.19,19.16-.42,28.74-.22-9.58-.31-19.16-.41-28.74l0-14.36c0-4.79,0-9.58,0-14.37l.48.48c-11.32,0-22.64,0-34-.13S54.16,283.68,42.84,283.5Z" style="fill:#c7c7c7"></path><path d="M110.76,349.17c-11.32.19-22.64.29-34,.36s-22.64.08-34,.13h-.48v-.49c0-4.7,0-9.39,0-14.09l.06-14.1c.09-9.39.18-18.79.41-28.18.22,9.39.31,18.79.4,28.18l.06,14.1c0,4.7.05,9.39,0,14.09l-.48-.48c11.32,0,22.64,0,34,.12S99.44,349,110.76,349.17Z" style="fill:#c7c7c7"></path><rect x="100.04" y="307.03" width="4.32" height="16.58" style="fill:#c7c7c7"></rect><rect x="42.84" y="81.61" width="148.7" height="4.48" style="fill:#ebebeb"></rect><rect x="42.84" y="144.93" width="148.7" height="4.48" style="fill:#ebebeb"></rect><rect x="42.84" y="208.25" width="148.7" height="4.48" style="fill:#ebebeb"></rect><rect x="37.83" y="112.06" width="50.42" height="15.3" transform="translate(182.75 56.67) rotate(90)" style="fill:#c7c7c7"></rect><rect x="60.27" y="120.21" width="5.54" height="15.3" transform="translate(190.9 64.82) rotate(90)" style="fill:#dbdbdb"></rect><rect x="62.01" y="97.82" width="2.06" height="15.3" transform="translate(168.51 42.43) rotate(90)" style="fill:#dbdbdb"></rect><rect x="152.23" y="112.07" width="50.42" height="15.3" transform="translate(57.72 297.16) rotate(-90)" style="fill:#c7c7c7"></rect><rect x="174.67" y="103.92" width="5.54" height="15.3" transform="translate(65.87 289.01) rotate(-90)" style="fill:#dbdbdb"></rect><rect x="176.41" y="133.24" width="2.06" height="15.3" transform="translate(318.34 -36.55) rotate(90)" style="fill:#dbdbdb"></rect><rect x="176.41" y="123.77" width="2.06" height="15.3" transform="translate(308.86 -46.02) rotate(90)" style="fill:#dbdbdb"></rect><rect x="111.23" y="113.91" width="50.42" height="11.61" transform="translate(256.15 -16.73) rotate(90)" style="fill:#c7c7c7"></rect><rect x="133.67" y="122.06" width="5.54" height="11.61" transform="translate(264.31 -8.58) rotate(90)" style="fill:#dbdbdb"></rect><rect x="135.42" y="99.67" width="2.06" height="11.61" transform="translate(241.92 -30.97) rotate(90)" style="fill:#dbdbdb"></rect><rect x="46.63" y="110.16" width="58.82" height="10.7" transform="translate(191.55 39.47) rotate(90)" style="fill:#dbdbdb"></rect><rect x="64.68" y="99.74" width="22.62" height="6.42" transform="translate(178.94 26.95) rotate(90)" style="fill:#ebebeb"></rect><rect x="160.67" y="114.05" width="55.31" height="6.45" transform="translate(71.05 305.59) rotate(-90)" style="fill:#a6a6a6"></rect><rect x="177.71" y="102.14" width="21.27" height="3.87" transform="translate(84.27 292.42) rotate(-90)" style="fill:#ebebeb"></rect><rect x="120.71" y="112.69" width="53.78" height="10.7" transform="translate(29.56 265.63) rotate(-90)" style="fill:#dbdbdb"></rect><rect x="137.3" y="126.32" width="20.68" height="6.42" transform="translate(18.12 277.17) rotate(-90)" style="fill:#ebebeb"></rect><rect x="68.12" y="113.51" width="44.68" height="18.16" transform="translate(213.05 32.13) rotate(90)" style="fill:#a6a6a6"></rect><rect x="88.38" y="129.03" width="4.16" height="18.16" transform="translate(228.57 47.65) rotate(90)" style="fill:#c7c7c7"></rect><rect x="89.65" y="123.41" width="1.61" height="18.16" transform="translate(222.95 42.03) rotate(90)" style="fill:#c7c7c7"></rect><rect x="28.12" y="117.66" width="41.99" height="12.55" transform="translate(173.05 74.83) rotate(90)" style="fill:#a6a6a6"></rect><rect x="47.15" y="132.25" width="3.91" height="12.55" transform="translate(187.64 89.41) rotate(90)" style="fill:#c7c7c7"></rect><rect x="47.15" y="107.28" width="3.91" height="12.55" transform="translate(162.67 64.44) rotate(90)" style="fill:#c7c7c7"></rect><rect x="48.35" y="112.68" width="1.52" height="12.55" transform="translate(168.06 69.84) rotate(90)" style="fill:#c7c7c7"></rect><rect x="131.95" y="107.09" width="58.83" height="16.85" transform="translate(276.88 -45.85) rotate(90)" style="fill:#a6a6a6"></rect><rect x="158.62" y="127.53" width="5.48" height="16.85" transform="translate(297.32 -25.41) rotate(90)" style="fill:#c7c7c7"></rect><rect x="158.62" y="92.55" width="5.48" height="16.85" transform="translate(262.34 -60.39) rotate(90)" style="fill:#c7c7c7"></rect><rect x="160.3" y="100.11" width="2.13" height="16.85" transform="translate(269.9 -52.83) rotate(90)" style="fill:#c7c7c7"></rect><rect x="94.39" y="116.8" width="50.59" height="6.27" transform="translate(195.97 -31.36) rotate(71.7)" style="fill:#a6a6a6"></rect><rect x="122.85" y="133.48" width="4.72" height="6.27" transform="translate(215.6 -25.16) rotate(71.7)" style="fill:#c7c7c7"></rect><rect x="113.4" y="104.92" width="4.72" height="6.27" transform="translate(182 -35.78) rotate(71.7)" style="fill:#c7c7c7"></rect><rect x="75.86" y="112.03" width="56.59" height="9.22" transform="translate(-12.48 220.79) rotate(-90)" style="fill:#c7c7c7"></rect><rect x="101.52" y="92.37" width="5.27" height="9.22" transform="translate(7.18 201.13) rotate(-90)" style="fill:#ebebeb"></rect><rect x="101.52" y="126.02" width="5.27" height="9.22" transform="translate(-26.48 234.79) rotate(-90)" style="fill:#ebebeb"></rect><rect x="103.13" y="118.75" width="2.05" height="9.22" transform="translate(-19.2 227.51) rotate(-90)" style="fill:#ebebeb"></rect><rect x="124.26" y="175.37" width="50.42" height="15.3" transform="translate(332.49 33.56) rotate(90)" style="fill:#c7c7c7"></rect><rect x="146.7" y="183.52" width="5.54" height="15.3" transform="translate(340.64 41.71) rotate(90)" style="fill:#dbdbdb"></rect><rect x="148.44" y="161.13" width="2.06" height="15.3" transform="translate(318.25 19.32) rotate(90)" style="fill:#dbdbdb"></rect><rect x="31.73" y="175.38" width="50.42" height="15.3" transform="translate(-126.1 239.97) rotate(-90)" style="fill:#c7c7c7"></rect><rect x="54.17" y="167.23" width="5.54" height="15.3" transform="translate(-117.94 231.82) rotate(-90)" style="fill:#dbdbdb"></rect><rect x="55.91" y="196.56" width="2.06" height="15.3" transform="translate(261.15 147.27) rotate(90)" style="fill:#dbdbdb"></rect><rect x="55.91" y="187.08" width="2.06" height="15.3" transform="translate(251.67 137.79) rotate(90)" style="fill:#dbdbdb"></rect><rect x="72.72" y="177.22" width="50.42" height="11.61" transform="translate(280.96 85.09) rotate(90)" style="fill:#c7c7c7"></rect><rect x="95.17" y="185.37" width="5.54" height="11.61" transform="translate(289.11 93.24) rotate(90)" style="fill:#dbdbdb"></rect><rect x="96.91" y="162.98" width="2.06" height="11.61" transform="translate(266.72 70.85) rotate(90)" style="fill:#dbdbdb"></rect><rect x="107.06" y="173.48" width="58.82" height="10.7" transform="translate(315.29 42.36) rotate(90)" style="fill:#dbdbdb"></rect><rect x="125.2" y="163.05" width="22.62" height="6.42" transform="translate(302.77 29.74) rotate(90)" style="fill:#ebebeb"></rect><rect x="24.54" y="183.49" width="43.05" height="6.45" transform="translate(-140.65 232.77) rotate(-90)" style="fill:#a6a6a6"></rect><rect x="37.76" y="174.5" width="16.56" height="3.87" transform="translate(-130.41 222.47) rotate(-90)" style="fill:#ebebeb"></rect><rect x="59.9" y="176" width="53.78" height="10.7" transform="translate(-94.56 268.13) rotate(-90)" style="fill:#dbdbdb"></rect><rect x="76.4" y="189.63" width="20.68" height="6.42" transform="translate(-106.1 279.58) rotate(-90)" style="fill:#ebebeb"></rect><rect x="99.71" y="176.83" width="44.68" height="18.16" transform="translate(307.95 63.86) rotate(90)" style="fill:#a6a6a6"></rect><rect x="119.96" y="192.35" width="4.16" height="18.16" transform="translate(323.47 79.38) rotate(90)" style="fill:#c7c7c7"></rect><rect x="121.24" y="186.72" width="1.61" height="18.16" transform="translate(317.85 73.76) rotate(90)" style="fill:#c7c7c7"></rect><rect x="158.37" y="175.08" width="53.79" height="12.55" transform="translate(366.62 -3.92) rotate(90)" style="fill:#a6a6a6"></rect><rect x="182.76" y="193.76" width="5.01" height="12.55" transform="translate(385.31 14.77) rotate(90)" style="fill:#c7c7c7"></rect><rect x="182.76" y="161.78" width="5.01" height="12.55" transform="translate(353.32 -17.22) rotate(90)" style="fill:#c7c7c7"></rect><rect x="184.3" y="168.69" width="1.94" height="12.55" transform="translate(360.23 -10.3) rotate(90)" style="fill:#c7c7c7"></rect><rect x="43.6" y="170.41" width="58.83" height="16.85" transform="translate(251.85 105.82) rotate(90)" style="fill:#a6a6a6"></rect><rect x="70.27" y="190.84" width="5.48" height="16.85" transform="translate(272.28 126.25) rotate(90)" style="fill:#c7c7c7"></rect><rect x="70.27" y="155.86" width="5.48" height="16.85" transform="translate(237.3 91.27) rotate(90)" style="fill:#c7c7c7"></rect><rect x="71.95" y="163.42" width="2.13" height="16.85" transform="translate(244.86 98.83) rotate(90)" style="fill:#c7c7c7"></rect><rect x="142.75" y="180.11" width="50.59" height="6.27" transform="translate(394.79 81.24) rotate(108.3)" style="fill:#dbdbdb"></rect><rect x="160.17" y="196.79" width="4.72" height="6.27" transform="translate(403.38 108.41) rotate(108.3)" style="fill:#c7c7c7"></rect><rect x="169.61" y="168.23" width="4.72" height="6.27" transform="translate(388.67 61.91) rotate(108.3)" style="fill:#c7c7c7"></rect><rect x="80.06" y="175.34" width="56.59" height="9.22" transform="translate(-71.6 288.3) rotate(-90)" style="fill:#dbdbdb"></rect><rect x="105.71" y="155.68" width="5.27" height="9.22" transform="translate(-51.94 268.64) rotate(-90)" style="fill:#ebebeb"></rect><rect x="105.71" y="189.33" width="5.27" height="9.22" transform="translate(-85.59 302.3) rotate(-90)" style="fill:#ebebeb"></rect><rect x="107.33" y="182.06" width="2.05" height="9.22" transform="translate(-78.32 295.02) rotate(-90)" style="fill:#ebebeb"></rect><rect x="34.12" y="240.56" width="50.42" height="11.61" transform="translate(305.7 187.03) rotate(90)" style="fill:#c7c7c7"></rect><rect x="56.57" y="248.71" width="5.54" height="11.61" transform="translate(313.85 195.18) rotate(90)" style="fill:#dbdbdb"></rect><rect x="58.31" y="226.32" width="2.06" height="11.61" transform="translate(291.46 172.79) rotate(90)" style="fill:#dbdbdb"></rect><rect x="18.78" y="236.82" width="58.82" height="10.7" transform="translate(290.35 193.98) rotate(90)" style="fill:#dbdbdb"></rect><rect x="36.92" y="226.39" width="22.62" height="6.42" transform="translate(277.83 181.36) rotate(90)" style="fill:#ebebeb"></rect><rect x="51.88" y="240.15" width="44.68" height="18.16" transform="translate(-175.01 323.46) rotate(-90)" style="fill:#a6a6a6"></rect><rect x="72.14" y="224.63" width="4.16" height="18.16" transform="translate(-159.49 307.94) rotate(-90)" style="fill:#c7c7c7"></rect><rect x="73.41" y="230.26" width="1.61" height="18.16" transform="translate(-165.12 313.56) rotate(-90)" style="fill:#c7c7c7"></rect><rect x="151.19" y="241.64" width="50.42" height="9.42" transform="translate(422.75 69.96) rotate(90)" style="fill:#c7c7c7"></rect><rect x="173.63" y="249.79" width="5.54" height="9.42" transform="translate(430.9 78.11) rotate(90)" style="fill:#dbdbdb"></rect><rect x="175.37" y="227.4" width="2.06" height="9.42" transform="translate(408.51 55.72) rotate(90)" style="fill:#dbdbdb"></rect><rect x="61.98" y="238.08" width="54.82" height="12.18" transform="translate(-154.77 333.56) rotate(-90)" style="fill:#c7c7c7"></rect><rect x="86.38" y="229.21" width="6.02" height="12.18" transform="translate(-145.91 324.69) rotate(-90)" style="fill:#dbdbdb"></rect><rect x="88.27" y="261.1" width="2.24" height="12.18" transform="translate(356.58 177.79) rotate(90)" style="fill:#dbdbdb"></rect><rect x="88.27" y="250.79" width="2.24" height="12.18" transform="translate(346.28 167.49) rotate(90)" style="fill:#dbdbdb"></rect><rect x="89.97" y="237.33" width="56.87" height="11.61" transform="translate(361.54 124.72) rotate(90)" style="fill:#c7c7c7"></rect><rect x="115.28" y="246.52" width="6.25" height="11.61" transform="translate(370.73 133.91) rotate(90)" style="fill:#dbdbdb"></rect><rect x="117.25" y="221.27" width="2.32" height="11.61" transform="translate(345.48 108.66) rotate(90)" style="fill:#dbdbdb"></rect><rect x="70.28" y="240.19" width="56.58" height="6.18" transform="translate(341.85 144.7) rotate(90)" style="fill:#dbdbdb"></rect><rect x="87.72" y="229.33" width="21.76" height="3.71" transform="translate(329.78 132.59) rotate(90)" style="fill:#ebebeb"></rect><rect x="134.75" y="234.63" width="53.78" height="20.09" transform="translate(-83.03 406.32) rotate(-90)" style="fill:#dbdbdb"></rect><rect x="151.21" y="250.14" width="20.68" height="12.05" transform="translate(-94.61 417.72) rotate(-90)" style="fill:#ebebeb"></rect><rect x="118.49" y="238.47" width="48.05" height="18.16" transform="translate(390.07 105.03) rotate(90)" style="fill:#a6a6a6"></rect><rect x="140.28" y="255.16" width="4.48" height="18.16" transform="translate(406.76 121.72) rotate(90)" style="fill:#c7c7c7"></rect><rect x="141.65" y="249.11" width="1.74" height="18.16" transform="translate(400.71 115.68) rotate(90)" style="fill:#c7c7c7"></rect><rect x="159.43" y="239.46" width="53.79" height="10.43" transform="translate(431.01 58.35) rotate(90)" style="fill:#a6a6a6"></rect><rect x="183.82" y="258.15" width="5.01" height="10.43" transform="translate(449.69 77.04) rotate(90)" style="fill:#c7c7c7"></rect><rect x="183.82" y="226.16" width="5.01" height="10.43" transform="translate(417.71 45.05) rotate(90)" style="fill:#c7c7c7"></rect><rect x="185.35" y="233.08" width="1.94" height="10.43" transform="translate(424.62 51.97) rotate(90)" style="fill:#c7c7c7"></rect><rect x="81.66" y="240.63" width="50.94" height="10.95" transform="translate(353.24 138.97) rotate(90)" style="fill:#a6a6a6"></rect><rect x="104.76" y="258.33" width="4.75" height="10.95" transform="translate(370.93 156.67) rotate(90)" style="fill:#c7c7c7"></rect><rect x="104.76" y="228.04" width="4.75" height="10.95" transform="translate(340.64 126.38) rotate(90)" style="fill:#c7c7c7"></rect><rect x="106.21" y="234.58" width="1.84" height="10.95" transform="translate(347.19 132.92) rotate(90)" style="fill:#c7c7c7"></rect><rect x="101.76" y="239.89" width="54.14" height="9.22" transform="translate(-115.68 373.33) rotate(-90)" style="fill:#dbdbdb"></rect><rect x="126.3" y="221.09" width="5.05" height="9.22" transform="translate(-96.87 354.52) rotate(-90)" style="fill:#ebebeb"></rect><rect x="126.3" y="253.28" width="5.05" height="9.22" transform="translate(-129.07 386.72) rotate(-90)" style="fill:#ebebeb"></rect><rect x="127.85" y="246.32" width="1.96" height="9.22" transform="translate(-122.11 379.76) rotate(-90)" style="fill:#ebebeb"></rect><polygon points="337.83 364.43 465.94 364.43 470.06 283.14 333.71 283.14 337.83 364.43" style="fill:#ebebeb"></polygon><path d="M456.55,320.35H343.73l-1.56-28.22H458.36Zm-111.87-1H455.61l1.69-26.22H343.23Z" style="fill:#dbdbdb"></path><path d="M455,352.81H347l-1.26-25.47H456.62Zm-107.1-1H454.08l1.47-23.47H346.76Z" style="fill:#dbdbdb"></path><path d="M413.12,309.3H389.2l-.88-6.81H414Zm-23-1h22.16l.62-4.81h-23.4Z" style="fill:#dbdbdb"></path><path d="M413.12,343.48H389.2l-.88-6.81H414Zm-23-1h22.16l.62-4.81h-23.4Z" style="fill:#dbdbdb"></path><polygon points="355.6 364.43 354.36 373.28 351.85 391.07 346.96 391.07 346.96 364.43 355.6 364.43" style="fill:#ebebeb"></polygon><polygon points="355.6 364.43 354.36 373.28 346.96 373.28 346.96 364.43 355.6 364.43" style="fill:#dbdbdb"></polygon><polygon points="448.18 364.43 449.42 373.28 451.92 391.07 456.81 391.07 456.81 364.43 448.18 364.43" style="fill:#ebebeb"></polygon><polygon points="448.18 364.43 449.42 373.28 456.81 373.28 456.81 364.43 448.18 364.43" style="fill:#dbdbdb"></polygon><rect x="409.55" y="244.23" width="50.42" height="9.42" style="fill:#c7c7c7"></rect><rect x="440.14" y="244.23" width="5.54" height="9.42" style="fill:#dbdbdb"></rect><rect x="419.5" y="244.23" width="2.06" height="9.42" style="fill:#dbdbdb"></rect><rect x="397.83" y="233.79" width="63.83" height="10.43" style="fill:#a6a6a6"></rect><rect x="448.94" y="233.79" width="5.95" height="10.43" style="fill:#c7c7c7"></rect><rect x="410.98" y="233.79" width="5.95" height="10.43" style="fill:#c7c7c7"></rect><rect x="421.01" y="233.79" width="2.31" height="10.43" style="fill:#c7c7c7"></rect><rect x="410.35" y="260.7" width="54.14" height="9.22" transform="translate(874.84 530.62) rotate(180)" style="fill:#a6a6a6"></rect><rect x="416.09" y="260.7" width="5.05" height="9.22" transform="translate(837.23 530.62) rotate(180)" style="fill:#ebebeb"></rect><rect x="448.29" y="260.7" width="5.05" height="9.22" transform="translate(901.62 530.62) rotate(180)" style="fill:#ebebeb"></rect><rect x="442.87" y="260.7" width="1.96" height="9.22" transform="translate(887.7 530.62) rotate(180)" style="fill:#ebebeb"></rect><rect x="394.77" y="269.92" width="66.98" height="13.22" style="fill:#c7c7c7"></rect><rect x="394.77" y="271.29" width="42.66" height="10.48" style="fill:#fff"></rect><path d="M397.53,273.44q5-.1,10-.15l10-.05,10,.05c3.33,0,6.65.08,10,.15-3.33.08-6.65.13-10,.16l-10,0-10,0Q402.52,273.55,397.53,273.44Z" style="fill:#dbdbdb"></path><path d="M397.53,275.5c3.33-.07,6.65-.13,10-.16l10,0,10,0c3.33,0,6.65.08,10,.16-3.33.07-6.65.13-10,.15l-10,.05-10-.05C404.18,275.63,400.86,275.57,397.53,275.5Z" style="fill:#dbdbdb"></path><path d="M397.53,277.55q5-.1,10-.15l10,0,10,0c3.33,0,6.65.08,10,.15-3.33.08-6.65.13-10,.16l-10,.05-10-.05Q402.52,277.67,397.53,277.55Z" style="fill:#dbdbdb"></path><path d="M397.53,279.61c3.33-.07,6.65-.13,10-.15l10,0,10,0c3.33,0,6.65.09,10,.16-3.33.07-6.65.13-10,.16l-10,0-10-.05C404.18,279.74,400.86,279.68,397.53,279.61Z" style="fill:#dbdbdb"></path><rect x="395.51" y="253.65" width="60.83" height="7.05" style="fill:#ebebeb"></rect><rect x="420.61" y="254.38" width="35.74" height="5.59" transform="translate(876.96 514.35) rotate(180)" style="fill:#fff"></rect><path d="M454,258.82c-2.78,0-5.57.05-8.35.06l-8.36,0-8.35,0c-2.79,0-5.57,0-8.36-.06,2.79,0,5.57-.05,8.36-.06l8.35,0,8.36,0C448.46,258.77,451.25,258.79,454,258.82Z" style="fill:#dbdbdb"></path><path d="M454,257.72c-2.78,0-5.57,0-8.35.06l-8.36,0-8.35,0c-2.79,0-5.57,0-8.36-.06,2.79,0,5.57-.05,8.36-.06h16.71Z" style="fill:#dbdbdb"></path><path d="M454,256.63c-2.78,0-5.57.05-8.35.06l-8.36,0-8.35,0c-2.79,0-5.57,0-8.36-.06,2.79,0,5.57-.05,8.36-.06l8.35,0,8.36,0C448.46,256.58,451.25,256.6,454,256.63Z" style="fill:#dbdbdb"></path><path d="M454,255.53c-2.78,0-5.57.05-8.35.06l-8.36,0-8.35,0c-2.79,0-5.57,0-8.36-.06,2.79,0,5.57-.05,8.36-.06l8.35,0,8.36,0C448.46,255.48,451.25,255.5,454,255.53Z" style="fill:#dbdbdb"></path><rect x="342.73" y="112.51" width="33.23" height="33.23" transform="translate(718.7 258.25) rotate(180)" style="fill:#dbdbdb"></rect><rect x="347.88" y="117.66" width="22.93" height="22.93" transform="translate(718.7 258.25) rotate(180)" style="fill:#fff"></rect><polygon points="370.81 117.66 370.81 140.59 347.88 140.59 370.81 117.66" style="fill:#ebebeb"></polygon><rect x="342.73" y="71.64" width="33.23" height="33.23" transform="translate(718.7 176.52) rotate(180)" style="fill:#dbdbdb"></rect><rect x="347.88" y="76.8" width="22.93" height="22.93" transform="translate(718.7 176.52) rotate(180)" style="fill:#fff"></rect><polygon points="370.81 83.53 370.81 99.72 354.62 99.72 370.81 83.53" style="fill:#ebebeb"></polygon><rect x="291.34" y="71.64" width="43.43" height="74.37" transform="translate(626.12 217.66) rotate(180)" style="fill:#dbdbdb"></rect><rect x="296.71" y="77.07" width="32.69" height="63.52" transform="translate(626.12 217.66) rotate(180)" style="fill:#fff"></rect><polygon points="329.41 98.95 329.41 140.59 307.98 140.59 329.41 98.95" style="fill:#ebebeb"></polygon><rect x="383.71" y="71.64" width="74.37" height="74.37" transform="translate(841.8 217.66) rotate(180)" style="fill:#dbdbdb"></rect><rect x="389.15" y="77.07" width="63.51" height="63.52" style="fill:#fff"></rect><path d="M406.93,140.59c9.6-9.66,36.83-37,45.73-45.81v45.81Z" style="fill:#ebebeb"></path></g><g id="freepik--Floor--inject-3"><polygon points="29.7 391.07 84.78 390.83 139.85 390.74 250 390.58 360.15 390.74 415.22 390.83 470.3 391.07 415.22 391.32 360.15 391.41 250 391.57 139.85 391.41 84.78 391.32 29.7 391.07" style="fill:#263238"></polygon></g><g id="freepik--Shadow--inject-3"><ellipse cx="250" cy="440.28" rx="204.27" ry="25.43" style="fill:#ebebeb"></ellipse></g><g id="freepik--Books--inject-3"><rect x="198.52" y="338.38" width="205.71" height="40.59" transform="translate(602.75 717.34) rotate(180)" style="fill:#FFC727"></rect><rect x="365.82" y="338.38" width="20.1" height="40.59" transform="translate(751.75 717.34) rotate(180)" style="fill:#37474f"></rect><rect x="349.98" y="338.38" width="8.39" height="40.59" transform="translate(708.35 717.34) rotate(180)" style="fill:#37474f"></rect><rect x="217.22" y="338.38" width="20.1" height="40.59" transform="translate(454.54 717.34) rotate(180)" style="fill:#37474f"></rect><rect x="50.84" y="323.4" width="205.71" height="30.17" transform="translate(-212.91 400.08) rotate(-75.12)" style="fill:#37474f"></rect><rect x="124.51" y="395.4" width="20.1" height="30.17" transform="translate(-296.72 435.1) rotate(-75.12)" style="fill:#FFC727"></rect><rect x="162.68" y="251.78" width="20.1" height="30.17" transform="translate(-129.55 365.26) rotate(-75.12)" style="fill:#FFC727"></rect><rect x="154.97" y="420.58" width="238.25" height="20.29" transform="translate(548.2 861.46) rotate(180)" style="fill:#FFC727"></rect><rect x="330.4" y="420.58" width="9.71" height="20.29" transform="translate(670.51 861.46) rotate(180)" style="fill:#a6a6a6"></rect><rect x="346.52" y="420.58" width="9.71" height="20.29" transform="translate(702.76 861.46) rotate(180)" style="fill:#a6a6a6"></rect><rect x="178.74" y="420.58" width="9.71" height="20.29" transform="translate(367.2 861.46) rotate(180)" style="fill:#a6a6a6"></rect><rect x="194.87" y="420.58" width="9.71" height="20.29" transform="translate(399.45 861.46) rotate(180)" style="fill:#a6a6a6"></rect><rect x="177.44" y="308.09" width="142.7" height="30.28" style="fill:#455a64"></rect><rect x="320.13" y="308.09" width="81.35" height="30.28" style="fill:#455a64"></rect><rect x="177.44" y="311.23" width="142.7" height="24" style="fill:#fff"></rect><path d="M186.67,316.17q16.68-.26,33.37-.35l33.36-.11,33.37.11q16.68.09,33.36.35-16.68.25-33.36.36l-33.37.1L220,316.52Q203.36,316.43,186.67,316.17Z" style="fill:#dbdbdb"></path><path d="M186.67,320.88q16.68-.25,33.37-.36l33.36-.1,33.37.1q16.68.11,33.36.36-16.68.25-33.36.35l-33.37.11L220,321.23Q203.36,321.14,186.67,320.88Z" style="fill:#dbdbdb"></path><path d="M186.67,325.59q16.68-.25,33.37-.36l33.36-.1,33.37.1q16.68.09,33.36.36-16.68.26-33.36.35l-33.37.11L220,325.94Q203.36,325.85,186.67,325.59Z" style="fill:#dbdbdb"></path><path d="M186.67,330.3q16.68-.26,33.37-.36l33.36-.11,33.37.11q16.68.09,33.36.36-16.68.26-33.36.35l-33.37.11L220,330.65Q203.36,330.56,186.67,330.3Z" style="fill:#dbdbdb"></path><rect x="191.34" y="219.01" width="116.79" height="21.74" style="fill:#a6a6a6"></rect><rect x="308.13" y="219.01" width="66.58" height="21.74" style="fill:#a6a6a6"></rect><rect x="191.34" y="221.27" width="116.79" height="17.23" style="fill:#fff"></rect><path d="M198.9,224.81q13.66-.18,27.31-.25l27.31-.08,27.31.08q13.65.06,27.3.25-13.65.18-27.3.26l-27.31.07-27.31-.07Q212.56,225,198.9,224.81Z" style="fill:#dbdbdb"></path><path d="M198.9,228.19q13.66-.18,27.31-.25l27.31-.08,27.31.08q13.65.06,27.3.25-13.65.18-27.3.26l-27.31.07-27.31-.07Q212.56,228.38,198.9,228.19Z" style="fill:#dbdbdb"></path><path d="M198.9,231.57q13.66-.18,27.31-.25l27.31-.08,27.31.08q13.65.06,27.3.25-13.65.19-27.3.26l-27.31.07-27.31-.07Q212.56,231.76,198.9,231.57Z" style="fill:#dbdbdb"></path><path d="M198.9,235q13.66-.18,27.31-.25l27.31-.08,27.31.08q13.65.06,27.3.25-13.65.2-27.3.26l-27.31.07-27.31-.07Q212.56,235.14,198.9,235Z" style="fill:#dbdbdb"></path><polygon points="155.64 273.99 127.2 380.84 110.98 441.76 95.33 437.59 111.55 376.67 139.99 269.82 155.64 273.99" style="fill:#FFC727"></polygon><polygon points="155.64 273.99 127.2 380.84 110.98 441.76 95.33 437.59 111.55 376.67 139.99 269.82 155.64 273.99" style="opacity:0.1"></polygon><rect x="78.31" y="318.91" width="110.57" height="12.84" transform="translate(482.34 279.92) rotate(104.91)" style="fill:#fff"></rect><path d="M149.62,279.79q-3.18,12.52-6.46,25l-6.6,25-6.7,25q-3.38,12.48-6.84,24.94,3.2-12.53,6.47-25l6.59-25,6.71-25Q146.17,292.25,149.62,279.79Z" style="fill:#dbdbdb"></path><path d="M147.19,279.14q-3.19,12.54-6.47,25l-6.59,25-6.71,25q-3.37,12.48-6.83,24.94,3.19-12.52,6.47-25l6.59-25,6.71-25Q143.74,291.6,147.19,279.14Z" style="fill:#dbdbdb"></path><path d="M144.76,278.5q-3.19,12.53-6.47,25l-6.59,25-6.71,25q-3.37,12.48-6.83,24.93,3.18-12.53,6.46-25l6.6-25,6.7-25Q141.29,291,144.76,278.5Z" style="fill:#dbdbdb"></path><path d="M142.32,277.85q-3.18,12.52-6.46,25l-6.6,25-6.7,25q-3.37,12.48-6.84,24.93,3.19-12.52,6.47-25l6.59-25,6.71-25Q138.87,290.3,142.32,277.85Z" style="fill:#dbdbdb"></path><rect x="257.27" y="378.96" width="119.55" height="41.62" transform="translate(634.09 799.54) rotate(180)" style="fill:#263238"></rect><rect x="173.3" y="378.96" width="83.97" height="41.62" transform="translate(430.57 799.54) rotate(180)" style="fill:#263238"></rect><rect x="257.27" y="383.28" width="119.55" height="32.98" transform="translate(634.09 799.54) rotate(180)" style="fill:#fff"></rect><path d="M369.08,409.48q-14,.25-27.95.35l-27.95.11-28-.11q-14-.09-28-.35,14-.25,28-.36l28-.1,27.95.1Q355.11,409.23,369.08,409.48Z" style="fill:#dbdbdb"></path><path d="M369.08,403q-14,.25-27.95.35l-27.95.11-28-.11q-14-.09-28-.35,14-.25,28-.36l28-.1,27.95.1Q355.11,402.74,369.08,403Z" style="fill:#dbdbdb"></path><path d="M369.08,396.54q-14,.25-27.95.35l-27.95.11-28-.11q-14-.09-28-.35,14-.26,28-.36l28-.11,27.95.11Q355.11,396.27,369.08,396.54Z" style="fill:#dbdbdb"></path><path d="M369.08,390.07q-14,.26-27.95.35l-27.95.11-28-.11q-14-.09-28-.35,14-.27,28-.36l28-.11,27.95.11Q355.11,389.8,369.08,390.07Z" style="fill:#dbdbdb"></path><rect x="185.43" y="279.85" width="219.42" height="28.36" style="fill:#c7c7c7"></rect><rect x="206.06" y="285.64" width="84.39" height="17.02" style="fill:#fff"></rect><rect x="310.82" y="285.64" width="79.22" height="2.63" style="fill:#fff"></rect><rect x="310.82" y="292.72" width="79.22" height="2.63" style="fill:#fff"></rect><rect x="310.82" y="299.79" width="79.22" height="2.63" style="fill:#fff"></rect><rect x="200.6" y="240.75" width="161.8" height="38.97" style="fill:#FFC727"></rect><rect x="330.16" y="240.75" width="15.08" height="38.97" style="fill:#263238"></rect><rect x="314.42" y="240.75" width="5.85" height="38.97" style="fill:#263238"></rect></g><g id="freepik--Plant--inject-3"><path d="M78.08,364.13c6.35-13.06,17.46-19.76,30-16.05s14.46,21.16,5.12,25.57-18.7-8.47-23.64-11.11S78.08,364.13,78.08,364.13Z" style="fill:#FFC727"></path><path d="M71.93,398.87c0-1.58.1-3.15.15-4.72.11-3.14.22-6.29.34-9.43.21-5.74.83-11.38,3.21-16.68A25.83,25.83,0,0,1,85.7,356.43a21.39,21.39,0,0,1,5.3-2.28,12.28,12.28,0,0,1,6.17-3.39,25.08,25.08,0,0,1,8.81-.22c.11,0,.1.17,0,.16a21.35,21.35,0,0,0-8.34.59,17.77,17.77,0,0,0-3.35,1.31,16.76,16.76,0,0,0-1.94,1.23,18,18,0,0,1,7.65.08,17.48,17.48,0,0,1,2.65.87,8.21,8.21,0,0,1,2.09-.18,12.39,12.39,0,0,1,2.71.39,20.55,20.55,0,0,1,5.15,2.25c.1.05,0,.19-.08.14a19.22,19.22,0,0,0-5-1.89,16.06,16.06,0,0,0-2.58-.38,13.79,13.79,0,0,0-1.44,0,16.58,16.58,0,0,1,8.09,8.07c0,.1-.1.18-.14.08A15.2,15.2,0,0,0,101.1,355c-.28-.07-.56-.11-.84-.17.1.41.08.87.14,1.27.08.63.19,1.26.31,1.89a33.6,33.6,0,0,0,1,3.82,30.72,30.72,0,0,0,1.52,3.71,17.61,17.61,0,0,0,2.12,3.57c.07.09-.07.2-.13.1-.76-1.18-1.63-2.27-2.32-3.49a27.35,27.35,0,0,1-1.7-3.64,25.37,25.37,0,0,1-1.11-3.92c-.14-.7-.25-1.41-.33-2.12a4.67,4.67,0,0,1-.08-1.29,17,17,0,0,0-4.45-.1c.56,3.12,1.16,6.36,2.9,9.07.06.09-.1.17-.15.08a38.12,38.12,0,0,1-2.15-4.46,17.13,17.13,0,0,1-1.07-4.63,20.42,20.42,0,0,0-7.35,2.46,24.22,24.22,0,0,0-9.79,10.71A40.25,40.25,0,0,0,74,383.21c-.42,6.67-.5,13.38-1.17,20,0,.43-.73.58-.81.09A22.92,22.92,0,0,1,71.93,398.87Z" style="fill:#263238"></path><path d="M86.61,355.39a7,7,0,0,1,1.44-1.33c.52-.43,1-.85,1.61-1.23a12,12,0,0,1,3.61-1.67c.1,0,.14.14,0,.16a9.41,9.41,0,0,0-3.56,1.75c-.53.39-1,.81-1.54,1.24a9.5,9.5,0,0,1-1.45,1.24C86.66,355.6,86.54,355.48,86.61,355.39Z" style="fill:#263238"></path><path d="M106.87,360.12a37.37,37.37,0,0,1,2.91,3.85,23.12,23.12,0,0,1,2.17,4.3s0,.07-.08,0a50.94,50.94,0,0,0-5.12-8.07C106.68,360.15,106.8,360,106.87,360.12Z" style="fill:#263238"></path><path d="M93.21,358.83a9.33,9.33,0,0,0,.72,2.36,15.54,15.54,0,0,0,1.21,2.09s0,.09-.07.05a8.49,8.49,0,0,1-2-4.46C93,358.76,93.19,358.72,93.21,358.83Z" style="fill:#263238"></path><path d="M72.82,364.45s-9-11.3-26.34-7.3C30,361,22.37,391.2,39,394.82s13.73-24.37,19.8-29.12C63.3,362.22,69.71,363,72.82,364.45Z" style="fill:#FFC727"></path><path d="M33.07,373.67a33.91,33.91,0,0,1,3.58-2.74,15.25,15.25,0,0,1,3.81-1.9,22,22,0,0,1,2.26-2.91A22.37,22.37,0,0,1,48,361.94l-.52,0c-.92,0-1.84,0-2.76,0a15.27,15.27,0,0,0-5.35,1.34c-.1,0-.17-.11-.07-.15a23.82,23.82,0,0,1,5.34-1.61,14.53,14.53,0,0,1,2.71-.24c.49,0,1,0,1.46.09l.28,0a23.24,23.24,0,0,1,5-1.84l-.48-.13A22.55,22.55,0,0,0,51,359a19.69,19.69,0,0,0-5.2.08c-.1,0-.13-.15,0-.17a32.94,32.94,0,0,1,5.25-.21,22.47,22.47,0,0,1,4.37.57,22.15,22.15,0,0,1,3.16-.36c6-.26,12.65,2,16.37,7s4.46,11.62,5.12,17.63a134.55,134.55,0,0,1,.66,25.22c0,.5-.74.4-.75-.07-.23-7.13-.48-14.26-1.16-21.37-.32-3.29-.67-6.59-1.22-9.85a28.75,28.75,0,0,0-2.39-8.12A14.82,14.82,0,0,0,69.33,363,19.68,19.68,0,0,0,61,360.47a22.44,22.44,0,0,0-7.79.72,5.3,5.3,0,0,1,0,1.54,9.55,9.55,0,0,1-.38,1.9,10.41,10.41,0,0,1-.73,1.68c-.32.6-.72,1.13-1.08,1.7-.06.09-.2,0-.14-.1a7.91,7.91,0,0,0,1.35-3.42,13.15,13.15,0,0,0,.21-1.77c0-.44,0-.9,0-1.34a22.89,22.89,0,0,0-7.57,4c-.43.34-.83.7-1.23,1.06a8.65,8.65,0,0,1,1.47,1.81A17.61,17.61,0,0,1,46.74,371a23.27,23.27,0,0,1,1.61,6,.09.09,0,0,1-.17,0,17.43,17.43,0,0,0-2-5.72,23.52,23.52,0,0,0-1.54-2.54c-.29-.42-.59-.83-.91-1.23-.17-.21-.36-.43-.52-.66a23.89,23.89,0,0,0-4.92,6.93h0a11.88,11.88,0,0,1,2,2.92A28.16,28.16,0,0,1,42,380.25a57.82,57.82,0,0,1,2.07,7.07c0,.11-.14.14-.16,0a30,30,0,0,0-2.46-7c-.52-1.08-1.07-2.15-1.64-3.21a27.78,27.78,0,0,1-1.63-3,22.06,22.06,0,0,0-2,8c0,.11-.18.09-.17,0a28,28,0,0,1,3.9-12.34c-1.06.45-2.13.89-3.15,1.44a17.42,17.42,0,0,0-3.61,2.54C33.1,373.87,33,373.74,33.07,373.67Z" style="fill:#263238"></path><path d="M45.8,374.31c.52,1.71,1.18,3.38,1.65,5.11a19.55,19.55,0,0,1,.76,5.1c0,.05-.07.05-.08,0a49.29,49.29,0,0,0-2.49-10.16A.08.08,0,1,1,45.8,374.31Z" style="fill:#263238"></path><path d="M34.81,370.06a9.35,9.35,0,0,1,2.3-1.64,15.56,15.56,0,0,1,2.66-.94c.1,0,.13.14,0,.16a10.22,10.22,0,0,0-2.56,1.05,20.15,20.15,0,0,0-2.36,1.45A.05.05,0,1,1,34.81,370.06Z" style="fill:#263238"></path><path d="M64.27,349.36s-1.65-20.3-16.75-26.88c-12.6-5.5-19.81,8.66-10.9,17.33C43.82,346.82,55.38,343.66,64.27,349.36Z" style="fill:#FFC727"></path><path d="M39.41,326.41a62.28,62.28,0,0,1,6.71,3.18,48.51,48.51,0,0,1,5.21,3.46c-.25-.52-.47-1.06-.72-1.56-.4-.78-.82-1.55-1.28-2.29A21.51,21.51,0,0,0,46,325c-.07-.07,0-.19.12-.11a32.26,32.26,0,0,1,3.5,4.07,24.65,24.65,0,0,1,1.44,2.3,9.45,9.45,0,0,1,1,2.33c0,.05.11.08.17.13a49,49,0,0,1,7.2,7.05c0-.2-.08-.4-.13-.58-.28-1-.59-2-.92-2.95a25,25,0,0,0-2.72-5.92.08.08,0,1,1,.14-.08A45.48,45.48,0,0,1,59,337a21.29,21.29,0,0,1,1,3,12.42,12.42,0,0,1,.5,2c.65.83,1.3,1.67,1.91,2.54,6.48,9.22,9.73,20.38,10.51,31.54a98.1,98.1,0,0,1,.17,10,62.55,62.55,0,0,1-.89,10c0,.21-.37.14-.36-.06.07-2.94.38-5.86.43-8.79A86.34,86.34,0,0,0,72,378.5a81.9,81.9,0,0,0-3.29-17.28A62,62,0,0,0,61,345c-.64-.13-1.27-.3-1.9-.46l-2.25-.6a23.32,23.32,0,0,1-4.21-1.54c-.1-.05,0-.2.09-.15A13.41,13.41,0,0,0,57,343.72c1.18.23,2.41.39,3.59.66a54.35,54.35,0,0,0-3.51-4.61,26.38,26.38,0,0,1-8.58-.65,33.29,33.29,0,0,1-4.39-1.36c-1.52-.59-3-1.33-4.44-2-.11,0,0-.21.07-.15a25.1,25.1,0,0,0,8.7,2.85,52.89,52.89,0,0,0,8.14.67c-1.07-1.23-2.18-2.42-3.36-3.55-4-3.78-8.67-7.24-13.89-9.05C39.26,326.53,39.31,326.37,39.41,326.41Z" style="fill:#263238"></path><path d="M51.69,326.47a24,24,0,0,1,1.85,2.71,14.32,14.32,0,0,1,1.33,3.15s0,.05-.06,0c-.5-1-.93-2-1.44-3a15.06,15.06,0,0,0-1.8-2.74C51.5,326.5,51.62,326.39,51.69,326.47Z" style="fill:#263238"></path><path d="M37.66,333.23a15.52,15.52,0,0,0,3.09,1.29,30.45,30.45,0,0,0,3.15.85,0,0,0,0,1,0,.09,15.92,15.92,0,0,1-3.27-.72,28.7,28.7,0,0,1-3-1.37C37.47,333.32,37.56,333.17,37.66,333.23Z" style="fill:#263238"></path><path d="M76,345.7c.09.88,2.28-7.37,15-14.69,11.59-6.65,25.42-23.94,14.06-34.87C95.94,287.33,71.77,306.55,76,345.7Z" style="fill:#FFC727"></path><path d="M67.22,393a224.62,224.62,0,0,1,2-25.65,115.34,115.34,0,0,1,5.39-23c1-2.68,2-5.32,3.21-7.92a19.23,19.23,0,0,1,.05-3c.06-1.3.18-2.59.3-3.89s.25-2.59.41-3.88.43-2.58.48-3.87a.08.08,0,1,1,.16,0,28.4,28.4,0,0,0-.46,4.11c-.09,1.25-.17,2.51-.2,3.76s0,2.51,0,3.77c0,.45,0,.93,0,1.42,1.2-2.54,2.49-5,3.88-7.47-.86-5.29.26-10.82,1.34-16,0-.1.18-.06.16.05a45.08,45.08,0,0,0-.84,8.2c0,2.17.05,4.34.06,6.51.31-.52.61-1,.92-1.55q2.49-4.06,5.3-7.92a12.54,12.54,0,0,1,.13-3.77,28.86,28.86,0,0,1,.92-4.12c.41-1.35.88-2.68,1.42-4s1.28-2.62,1.82-4a.08.08,0,1,1,.15.07,19,19,0,0,0-1.6,4,34.07,34.07,0,0,0-1,4c-.27,1.34-.49,2.69-.68,4-.13.9-.21,1.83-.36,2.74a97.34,97.34,0,0,1,8.93-10.4.09.09,0,0,1,.12.12,117.89,117.89,0,0,0-13,17.65l-.41.71c.71-.44,1.51-.79,2.17-1.16,1.24-.68,2.48-1.37,3.73-2s2.41-1.31,3.61-2c.62-.34,1.23-.7,1.86-1a15.66,15.66,0,0,0,2.16-1.2c.1-.07.2.08.1.13-1.23.68-2.31,1.68-3.5,2.44s-2.41,1.49-3.64,2.18c-2.27,1.27-4.74,2.18-7,3.49-1.55,2.71-3,5.49-4.29,8.32,1.35-.87,2.74-1.69,4.14-2.48.91-.5,1.81-1,2.73-1.49a12.92,12.92,0,0,0,2.57-1.55c.08-.07.19.05.11.12a23.48,23.48,0,0,1-4.9,3.41c-1.64,1-3.29,1.89-5,2.72-1.36,3-2.6,6-3.69,9.13-5.37,15.21-7.35,31.35-8.29,47.39-.28,4.78-.42,9.56-.48,14.34s.19,9.56.18,14.34c0,.14-.23.17-.25,0-.58-4.24-.68-8.55-.86-12.82S67.13,397.33,67.22,393Z" style="fill:#263238"></path><path d="M90.41,324.14a64.92,64.92,0,0,0,6.78-3.51,74.28,74.28,0,0,0,6.43-4.09s.08,0,0,.06a53.86,53.86,0,0,1-6.18,4.32,61.57,61.57,0,0,1-7,3.36C90.39,324.32,90.31,324.18,90.41,324.14Z" style="fill:#263238"></path><path d="M86.71,306.94c.19-.74.42-1.47.67-2.19,0,0,0-.05,0-.08.16-.42.33-.82.5-1.23l.06-.15.09-.23s0,0,0,0l-.12.42a2.17,2.17,0,0,1-.07.24A60.75,60.75,0,0,0,86,312.39c0,.09-.16.1-.15,0A28.84,28.84,0,0,1,86.71,306.94Z" style="fill:#263238"></path><polygon points="53.74 396.07 54.65 406.86 57.44 439.77 87.3 439.77 90.08 406.86 90.99 396.07 53.74 396.07" style="fill:#455a64"></polygon><polygon points="53.74 396.07 54.65 406.86 90.08 406.86 90.99 396.07 53.74 396.07" style="fill:#263238"></polygon><rect x="50.81" y="391.74" width="43.11" height="10.35" transform="translate(144.73 793.82) rotate(180)" style="fill:#455a64"></rect></g><g id="freepik--Character--inject-3"><path d="M393.67,218.25c-2.1.76-64.19,2-66.53.56-.28-.15-1.29-20.69-1.29-20.69.08-.29-1-2.27-2.54-5-4.43-7.73-13.09-21.57-13.09-21.57l36.86-11.14,15.14,30.32,3.86,7.74s8.46,3.31,15.85,6.61c0,0,0,0,0,0a89.2,89.2,0,0,1,9.42,4.57C393.75,211.48,395.77,217.51,393.67,218.25Z" style="fill:#d3766a"></path><path d="M393.67,218.25c-2.1.76-64.19,2-66.53.56-.28-.15-1.29-20.69-1.29-20.69.08-.29-1-2.27-2.54-5l38.91-2.39,3.86,7.74s8.46,3.31,15.85,6.61c0,0,0,0,0,0a89.2,89.2,0,0,1,9.42,4.57C393.75,211.48,395.77,217.51,393.67,218.25Z" style="fill:#fff"></path><path d="M393.93,218.48c-2.16.77-64.34,1.83-66.74.38-.91-.55-2-10.12-1.34-20.74l40.09-.64s23.22,10.26,25.68,12.14S396.09,217.72,393.93,218.48Z" style="fill:#FFC727"></path><path d="M343.46,219.56c-8.85,0-15.51-.25-16.27-.7-.91-.55-2-10.12-1.34-20.74l1,0Z" style="opacity:0.1"></path><path d="M393,216c-10.42-.08-52.49.6-62.8,1.31-.08,0-.08.07,0,.07,10.33.3,52.39-.71,62.81-1.21C393.22,216.17,393.22,216,393,216Z" style="fill:#263238"></path><path d="M387.58,207.46a8.33,8.33,0,0,0-6.19,2.65,8.1,8.1,0,0,0-2.24,5.6c0,.06.12.06.13,0a9.65,9.65,0,0,1,8.3-8.12C387.66,207.58,387.66,207.46,387.58,207.46Z" style="fill:#263238"></path><path d="M369.23,198.47c-4.17,0-9,1.57-11.52,5-.1.13.1.27.22.2A57.76,57.76,0,0,1,369.31,199,.26.26,0,0,0,369.23,198.47Z" style="fill:#263238"></path><path d="M372.47,199.67c-4.17,0-9,1.57-11.52,5-.09.13.1.27.22.2a57.76,57.76,0,0,1,11.38-4.72A.26.26,0,0,0,372.47,199.67Z" style="fill:#263238"></path><path d="M375.71,200.87c-4.17,0-9,1.57-11.51,5-.1.13.09.27.21.2a57.6,57.6,0,0,1,11.39-4.72A.26.26,0,0,0,375.71,200.87Z" style="fill:#263238"></path><path d="M379,202.07c-4.18,0-9,1.57-11.52,5-.1.13.09.27.21.2A57.6,57.6,0,0,1,379,202.58.26.26,0,0,0,379,202.07Z" style="fill:#263238"></path><path d="M332.67,207.38c-4.68.09-4.54,7.36.15,7.27S337.36,207.28,332.67,207.38Z" style="fill:#263238"></path><path d="M373.55,187.26c-2.14-1.71-4.78,0-6.05,1.88a22,22,0,0,0-3.6,10.74c0,.08.06.12.13.11a.5.5,0,0,0,.75.33c2.94-2.11,6.34-4,8.54-6.94C374.6,191.66,375.57,188.88,373.55,187.26Zm-5,9c-1.42,1.08-2.88,2.07-4.26,3.19a65.94,65.94,0,0,1,2.25-6.22,25.44,25.44,0,0,1,1.47-2.84c.89-1.39,4.92-5,5.41-.42C373.73,192.42,370.27,194.94,368.58,196.21Z" style="fill:#263238"></path><path d="M353.56,201.6c3.64.5,7.37-.6,10.93-1.22a.51.51,0,0,0,.3-.76.12.12,0,0,0,0-.18,22,22,0,0,0-10.18-5c-2.21-.38-5.3.26-5.58,3S351.43,201.31,353.56,201.6ZM351,199.27c-2.89-3.53,2.48-3.91,4.09-3.56a21.64,21.64,0,0,1,3.06.94,65.28,65.28,0,0,1,6,2.76c-1.77.2-3.5.54-5.26.8C356.81,200.52,352.59,201.22,351,199.27Z" style="fill:#263238"></path><path d="M320.5,192.7l43.73-6.63s-21-41.89-34-64.62c-7.23-12.64-27-13.26-36.65,1.89C280.7,143.57,270.72,162.52,265,173l-9.92.85,2.14,16.2,33,7.38c12.63,1.52,21.49-21,21.7-20.58C313.47,179.83,320.5,192.7,320.5,192.7Z" style="fill:#37474f"></path><path d="M312.11,177c-1.25-2.55-2.22-5.25-3.32-7.86l-3.21-7.57c-2.14-5.11-4.36-10.2-6.44-15.33-1.17-2.88-2.24-5.8-3.33-8.71,0-.07-.14,0-.12,0,.85,2.75,1.73,5.5,2.65,8.22-.25-.47-.49-.94-.75-1.4-.7-1.25-1.42-2.49-2.15-3.73a0,0,0,1,0-.07,0c.67,1.25,1.34,2.49,2,3.72.34.62.72,1.22,1.09,1.83a190.6,190.6,0,0,0,9.07,22.41c1.39,2.85,3,5.58,4.41,8.43C312,177.15,312.15,177.07,312.11,177Z" style="fill:#263238"></path><path d="M321.48,184.92c-2.11-3.25-7.13-13.09-8.93-16.5-3.63-6.88-7-13.91-10.11-21-1.78-4-3.44-8.08-5.09-12.16,0,0-.05,0,0,0a231.38,231.38,0,0,0,8.63,21.6c3.2,7.07,13.55,26.11,15.41,28.17C321.42,185.08,321.54,185,321.48,184.92Z" style="fill:#263238"></path><path d="M294.34,140.67c-3.77,6.73-7.62,13.41-11.4,20.13-1.91,3.39-3.83,6.79-5.72,10.19-.89,1.61-1.75,3.23-2.68,4.81a9,9,0,0,1-3.45,3.59,27,27,0,0,1-5.48,1.91c-2.13.62-4.24,1.29-6.38,1.88-.1,0-.05.17,0,.15,1.9-.51,3.82-1,5.74-1.42a49.46,49.46,0,0,0,5.21-1.41,8.29,8.29,0,0,0,3.86-2.67,31.16,31.16,0,0,0,2.71-4.51Q282.47,163,288,152.53c2.12-3.95,4.21-7.91,6.34-11.84C294.38,140.67,294.35,140.65,294.34,140.67Z" style="fill:#263238"></path><path d="M319.51,186.56c2.62-.48,5.3-.7,7.94-1l7.95-1c5.28-.69,23.27-3.56,24.63-4a.09.09,0,0,0,0-.17c-1.29,0-13.07,1.53-15.71,1.92-5.28.78-10.53,1.71-15.8,2.6-1.5.25-3,.54-4.5.81s-3,.59-4.5.78A.07.07,0,1,0,319.51,186.56Z" style="fill:#263238"></path><path d="M345.73,232c-.7-2.11-38.18-51.64-40.74-52.59-.3-.13-17.05,11.8-17.05,11.8-.69.92-32.54-5.81-32.54-5.81l-.32,38.42,58-1.23s7.83,4.6,15,8.36h0a86.39,86.39,0,0,0,9.43,4.57C340.46,236.23,346.44,234.07,345.73,232Z" style="fill:#d3766a"></path><path d="M337.56,235.48a82.57,82.57,0,0,1-9.43-4.57h0c-7.16-3.75-15-8.37-15-8.37l-12.91.28L280,190.2c4.43.79,7.74,1.26,8,1,0,0,16.75-11.92,17.05-11.79,2.56.95,40,50.47,40.74,52.59S340.46,236.23,337.56,235.48Z" style="fill:#fff"></path><path d="M346.07,232c-.74-2.17-38.39-51.66-41-52.65-1-.37-9.19,4.69-17.11,11.79l24.31,31.88s22.43,11.88,25.43,12.65S346.81,234.2,346.07,232Z" style="fill:#FFC727"></path><path d="M343.55,232.82c-6.52-8.14-32-41.59-37.85-50.13,0-.07,0-.11.06,0,6.63,7.93,31.87,41.58,37.93,50.07C343.81,232.9,343.69,233,343.55,232.82Z" style="fill:#263238"></path><path d="M333.48,233.87a8.35,8.35,0,0,1-1.75-6.51,8.07,8.07,0,0,1,3-5.22c.05,0,.12.05.07.1a9.69,9.69,0,0,0-1.24,11.55A.06.06,0,0,1,333.48,233.87Z" style="fill:#263238"></path><path d="M315.06,225c-2.57-3.29-4.33-8-3.18-12.16,0-.16.27-.09.3,0a57.61,57.61,0,0,0,3.33,11.86A.26.26,0,0,1,315.06,225Z" style="fill:#263238"></path><path d="M318,226.82c-2.57-3.28-4.33-8-3.18-12.16,0-.16.27-.09.29.05a58.27,58.27,0,0,0,3.34,11.86A.26.26,0,0,1,318,226.82Z" style="fill:#263238"></path><path d="M321,228.62c-2.57-3.28-4.33-8-3.18-12.15,0-.16.27-.1.29,0a58.27,58.27,0,0,0,3.34,11.86A.26.26,0,0,1,321,228.62Z" style="fill:#263238"></path><path d="M323.91,230.43c-2.57-3.29-4.33-8-3.18-12.16,0-.16.27-.09.29,0a58.27,58.27,0,0,0,3.34,11.86A.26.26,0,0,1,323.91,230.43Z" style="fill:#263238"></path><path d="M299.43,190.79c-2.82-3.73,3-8.12,5.8-4.38S302.26,194.53,299.43,190.79Z" style="fill:#263238"></path><path d="M313.6,231.38c.95-3.55.32-7.39.16-11A.51.51,0,0,0,313,220a.1.1,0,0,0-.17,0,21.79,21.79,0,0,0-6.2,9.48c-.66,2.13-.41,5.29,2.26,5.91S313,233.45,313.6,231.38ZM311,233.63c-3.86,2.41-3.57-3-3-4.51a25.56,25.56,0,0,1,1.32-2.92,64.9,64.9,0,0,1,3.5-5.61c0,1.77.09,3.54.13,5.31C312.93,228,313.09,232.29,311,233.63Z" style="fill:#263238"></path><path d="M301.78,209.78c-2,1.91-.56,4.74,1.11,6.23a21.88,21.88,0,0,0,10.19,4.93.11.11,0,0,0,.13-.12.51.51,0,0,0,.42-.71c-1.72-3.18-3.17-6.79-5.81-9.34C306.28,209.28,303.64,208,301.78,209.78Zm8.26,6.05c.88,1.54,1.68,3.11,2.62,4.62-2-1-4-1.84-5.89-3a23.76,23.76,0,0,1-2.63-1.83c-1.27-1.05-4.29-5.5.27-5.42C306.92,210.25,309,214,310,215.83Z" style="fill:#263238"></path><path d="M272.05,176.48S208.48,165.32,190.4,169c-25.22,5.11-29.86,34.94-11.15,46C203,229.12,298.4,226.39,298.4,226.39l-22.8-38.63s-35.07-7.39-66.87-6.32l63.6,9.72Z" style="fill:#37474f"></path><path d="M277.12,190.25a.73.73,0,0,1-.05-.2c0-.05,0-.11,0-.16s-.07-.25-.1-.38a7.51,7.51,0,0,0-.27-.75,7.87,7.87,0,0,0-.32-.74,4.79,4.79,0,0,0-.42-.68l-.06,0,0,0-.06,0-.06,0c-3.85-.72-30.06-4.46-33.95-4.91s-7.87-.81-11.81-1.14a233.34,233.34,0,0,0-23.65-.85l-2.22.06c-.15,0-.32-.08-.48-.12-.38-.09-.76-.18-1.14-.25-.71-.14-1.43-.24-2.14-.35-1.5-.23-3-.39-4.48-.67a.07.07,0,0,0,0,.14c1.49.33,3,.76,4.45,1.09l1.29.27c-2.89.16-5.77.38-8.66.64-.09,0-.09.15,0,.14,3.93-.23,7.88-.26,11.82-.19s7.81.15,11.71.38c7.89.45,15.77,1.16,23.63,2,4.41.46,31.13,4.36,35.56,4.54h0c0,.1.07.2.12.3s.25.48.38.71.25.45.39.67l.22.32.11.16a.74.74,0,0,1,.12.17C277,190.4,277.17,190.34,277.12,190.25Z" style="fill:#263238"></path><path d="M290.17,224c-1.41-2.25-2.61-4.66-3.9-7l-3.9-7c-2.59-4.66-11.9-20.31-12.82-21.41-.06-.07-.18,0-.15.09.44,1.22,6.25,11.58,7.59,13.89,2.67,4.62,5.48,9.15,8.25,13.72.8,1.3,1.62,2.58,2.42,3.88s1.65,2.57,2.39,3.9C290.09,224.2,290.22,224.12,290.17,224Z" style="fill:#263238"></path><path d="M269.29,192.54c-2.33-.56-4.71-.92-7.07-1.37l-7.07-1.33q-7.07-1.31-14.17-2.51c-9.44-1.59-18.91-2.9-28.44-3.82-5.37-.51-10.76-.85-16.15-1.25-.11,0-.11.18,0,.18,9.6.43,19.18,1.73,28.68,3.1s18.79,2.83,28.17,4.41l7.93,1.36c2.69.47,5.37,1,8.08,1.38C269.35,192.71,269.39,192.56,269.29,192.54Z" style="fill:#263238"></path><path d="M261.39,116.88c1.84,11.47,11.6,47.09,22,50.89,6.79,2.49,42.24.44,48-5.58,2.53-2.63-.53-25.05-4.42-24.77s-31.47,4.94-34.14,3.75-15.27-24.55-22.1-33.31C260.21,94.37,260,107.86,261.39,116.88Z" style="fill:#d3766a"></path><path d="M265.52,138.32,285,126.94s-8-12.61-14.4-20.07S258.69,97.66,260.3,113A121.12,121.12,0,0,0,265.52,138.32Z" style="fill:#263238"></path><path d="M276.81,176c-1.05.86-59.91-5.17-60.16-5.58-.68-1.11,11.58-37.41,19.51-50.87,10.16-17.26,14.78-18.35,17.55-19.1,3.54-1,9.34-.2,12,1.72,1.48,1.06,5.46,9.77,6.81,16.65C275.24,132.61,277.72,175.21,276.81,176Z" style="fill:#FFC727"></path><path d="M264.25,110.36c-3.36.81-9.15-4.3-11.44-8.45-.16-.29.27-3.3.61-7,.2-2.23.37-4.73.36-7,0-.47,14.35,3.42,14.35,3.42a36.48,36.48,0,0,0-1.35,8.78,5.64,5.64,0,0,0,.1.94.61.61,0,0,1,0,.15C267.2,103,267.49,109.57,264.25,110.36Z" style="fill:#d3766a"></path><path d="M254.66,88c.68,3.86,3.12,13.18,10.77,13.32a9.66,9.66,0,0,0,1.47-.08.63.63,0,0,0,0-.16,5.5,5.5,0,0,1-.11-.94,36.15,36.15,0,0,1,1.36-8.78S257.77,88.53,254.66,88Z" style="fill:#263238"></path><path d="M254.54,69c-2.52,4.68-2.77,19.6.13,23.52,4.2,5.69,12.53,7.82,17.72,2.43,5-5.21,5-24.67,1.64-28.38C269.06,61.08,258.26,62.06,254.54,69Z" style="fill:#d3766a"></path><path d="M254.34,92.28h0" style="fill:none;stroke:#f5a79e;stroke-linecap:round;stroke-linejoin:round;stroke-width:0px"></path><path d="M265.87,82.31s-.08,0-.08.09c0,1-.15,2.16-1.06,2.47,0,0,0,.06,0,.06C265.85,84.8,266,83.26,265.87,82.31Z" style="fill:#263238"></path><path d="M265,81.24c-1.61-.16-1.81,3.08-.31,3.23S266.35,81.38,265,81.24Z" style="fill:#263238"></path><path d="M271.48,82.68s.08.06.08.1c-.1,1,0,2.16.85,2.55a0,0,0,0,1,0,.06C271.3,85.16,271.24,83.62,271.48,82.68Z" style="fill:#263238"></path><path d="M272.44,81.69c1.63,0,1.55,3.22.05,3.24S271.09,81.71,272.44,81.69Z" style="fill:#263238"></path><path d="M263.66,78.59a9.85,9.85,0,0,0,1.32-.14,2.15,2.15,0,0,0,1.33-.39.68.68,0,0,0,.09-.83,1.7,1.7,0,0,0-1.63-.58,2.53,2.53,0,0,0-1.65.71A.74.74,0,0,0,263.66,78.59Z" style="fill:#263238"></path><path d="M274.07,79.42a11.63,11.63,0,0,1-1.26-.42,2.1,2.1,0,0,1-1.21-.66.68.68,0,0,1,.09-.84,1.69,1.69,0,0,1,1.71-.21,2.5,2.5,0,0,1,1.46,1A.74.74,0,0,1,274.07,79.42Z" style="fill:#263238"></path><path d="M263.63,91.53c.22.25.44.59.8.64a2.77,2.77,0,0,0,1.1-.18,0,0,0,0,1,0,.05,1.36,1.36,0,0,1-1.31.47,1.06,1.06,0,0,1-.73-.94C263.51,91.51,263.59,91.5,263.63,91.53Z" style="fill:#263238"></path><path d="M264.86,88.59a3.4,3.4,0,0,0,2.19,1.66,3.87,3.87,0,0,0,1.23.13.87.87,0,0,0,.23,0l.22,0a.25.25,0,0,0,.22-.21h0V90h0v-.09c.07-.77.07-2,.07-2,.27.16,1.67.9,1.67.49A51.4,51.4,0,0,0,270,78.05a.1.1,0,0,0-.19,0c-.13,3.23.31,6.45.23,9.69a6.21,6.21,0,0,0-1.59-.59c-.11,0,.05,2.28,0,2.63v0A4.72,4.72,0,0,1,265,88.51C264.89,88.45,264.81,88.51,264.86,88.59Z" style="fill:#263238"></path><path d="M267.84,90a4,4,0,0,1-1.7,1.16,1.83,1.83,0,0,1-1.11,0c-.79-.26-.76-1-.58-1.62a4.86,4.86,0,0,1,.42-.94A5.3,5.3,0,0,0,267.84,90Z" style="fill:#263238"></path><path d="M266.14,91.12a1.83,1.83,0,0,1-1.11,0c-.79-.26-.76-1-.58-1.62A1.87,1.87,0,0,1,266.14,91.12Z" style="fill:#ff98b9"></path><path d="M253.16,82.36c3.1.89,6.25-12.46,6.25-12.46a20.56,20.56,0,0,0,5.28,3.32,28.5,28.5,0,0,0,6.15,1.43c.47,0-4.31-3.64-4.31-3.64a23.73,23.73,0,0,0,9.31,1.86c2.39-.14,2.26-1.16,2.36-1.94s-2.95-8.84-12.62-9.77a11.87,11.87,0,0,0-10.25,4.59s-4.45,3-4.91,5.22C249.79,73.93,249.89,81.42,253.16,82.36Z" style="fill:#263238"></path><path d="M270.92,83.15c.16-2.28,1.52-4,3-3.93s2.6,2,2.44,4.32-1.52,4-3,3.92S270.76,85.42,270.92,83.15Zm.55,0c-.14,2,.72,3.64,1.92,3.72s2.29-1.45,2.43-3.41-.72-3.64-1.92-3.73S271.62,81.22,271.47,83.19Z" style="fill:#455a64"></path><path d="M260.56,82.41a3.87,3.87,0,1,1,3.55,4.39A4,4,0,0,1,260.56,82.41Zm.55,0a3.31,3.31,0,1,0,3.55-3.33A3.46,3.46,0,0,0,261.11,82.44Z" style="fill:#455a64"></path><path d="M268.1,82.57c2.11-.58,3,.17,3,.17l.37-.41s-1.09-1-3.53-.29Z" style="fill:#455a64"></path><path d="M260.86,82.06l.14-.53c-.35-.09-8.66-2.25-9.57-2.36s-3.3,1-3.56,1.1l.24.5a10.45,10.45,0,0,1,3.21-1.06h0C252.06,79.81,257.88,81.29,260.86,82.06Z" style="fill:#455a64"></path><path d="M255.27,81.32s-2.43-5.26-4.76-4.47-1.09,8,1.23,9.37a2.58,2.58,0,0,0,3.64-.75Z" style="fill:#d3766a"></path><path d="M250.91,78.9s0,0,0,.07c1.62,1,2.25,2.8,2.59,4.6a1.42,1.42,0,0,0-2-.76c-.06,0,0,.1,0,.1a1.58,1.58,0,0,1,1.61.85,7.48,7.48,0,0,1,.57,1.54c.06.17.35.13.33-.06v0C254.43,83,253.26,79.56,250.91,78.9Z" style="fill:#263238"></path><path d="M289.4,154.9c0,3.69-10.46,2.76-13.07,3.08s-3,1-1.68,1.76a4.45,4.45,0,0,0,.85.3c-4.06-.84-17.48-5.52-17.48-5.52s8.06-2.67,12.33-3.53S289.41,151.19,289.4,154.9Z" style="fill:#d3766a"></path><path d="M314.49,135.92a38.59,38.59,0,0,1,6.84-4.94c3.26-1.67,10.53-4.67,11.77-5.58l2.26-.51L328,174.34,308.64,183l-35.1-3.64,4.93-46.68,2.29-.55s4.48.64,8.13.8S304.83,131.51,314.49,135.92Z" style="fill:#fff"></path><polygon points="305.84 184.67 311.88 137.2 276.95 132.42 271.75 180.7 305.84 184.67" style="fill:#FFC727"></polygon><polygon points="305.84 184.67 311.88 137.2 276.95 132.42 271.75 180.7 305.84 184.67" style="opacity:0.1"></polygon><polygon points="305.84 184.67 310.73 184.12 316.82 136.65 311.88 137.2 305.84 184.67" style="fill:#FFC727"></polygon><polygon points="310.73 184.12 316.82 136.65 336.28 124.31 328.65 174.69 310.73 184.12" style="fill:#FFC727"></polygon><polygon points="310.73 184.12 316.82 136.65 336.28 124.31 328.65 174.69 310.73 184.12" style="opacity:0.1"></polygon><path d="M237.34,112.47c-7.37,8.25-31.07,42.68-27.9,53.25,2.08,6.93,40.72,16.58,49,17.62,3.62.45,8.37-24.43,5.82-27.37s-25.83-3-26.47-5.89,11.42-28.8,13.4-38.52C254.66,94.64,242,107.23,237.34,112.47Z" style="fill:#d3766a"></path><path d="M297.41,169.55c-.17,3.26-5.23,4.35-5.58,4.41.31,0,4.81-.48,4.41,2.76s-4.85,5.08-4.85,5.08,1.49.77.14,3c-1.95,3.2-10,4.17-14.29,3.69s-19.76-5.44-22.11-6.25L258,154.52s13.42,4.68,17.48,5.52h.06a71.39,71.39,0,0,0,8.51,1.46c4.55.32,10.81-3,11.57.3.69,2.95-3.88,4.83-3.88,4.83S297.59,166.18,297.41,169.55Z" style="fill:#d3766a"></path><path d="M291.51,166.62c-6.54,2.18-9.78,2-16.36.37a.11.11,0,0,0-.07.2c6.3,2.18,10.33,3,16.55-.26C291.93,166.77,291.82,166.52,291.51,166.62Z" style="fill:#263238"></path><path d="M292.08,173.81c-7,1.67-10.5,1.5-17.52.31-.1,0-.14.15,0,.17,6.79,1.75,10.83,2.47,17.59-.11C292.41,174.06,292.4,173.73,292.08,173.81Z" style="fill:#263238"></path><path d="M291.3,181.76c-6.88,1.13-10.74,1.11-17.41-.92a.13.13,0,0,0-.08.24c6.59,2.73,11.4,2.79,17.5.89C291.72,181.85,291.73,181.69,291.3,181.76Z" style="fill:#263238"></path><path d="M335.93,138.05c2.19,3.12,7,6.64,7.77,9.36a3.24,3.24,0,0,1-1.2,3.68s3,.91,3.33,3.5c.17,1.33-1.81,2.77-1.81,2.77a3.86,3.86,0,0,1,2.52,3.15c.12,1.84-1.88,3-1.88,3s1.91,1.85,1.42,3.77c-1,3.9-16.63,6.57-20,1.22-1.58-2.5,2.28-2.94,2.28-2.94s-5.71-.7-6.34-3.91,4.41-3.49,4.41-3.49-5.52-.73-5.84-4.13,4.76-2.95,4.76-2.95-3.88-1.76-3.53-4.42c.58-4.39,8.06-.27,11.36-1.68l.93-6Z" style="fill:#d3766a"></path><path d="M339.91,142.44c-1.82-3.13,1.62-8,.31-11.22-1.77-4.4-6.14.95-6.15,7.77l.93,5.3Z" style="fill:#d3766a"></path><path d="M344.37,163.74c.05,0,.08.06,0,.08a27.52,27.52,0,0,1-16.29,1.8c-.17,0-.19-.34,0-.33A56.26,56.26,0,0,0,344.37,163.74Z" style="fill:#100e3a"></path><path d="M344.1,157.38c.06,0,.09.08,0,.11a25.83,25.83,0,0,1-17.9.85c-.2-.07-.31-.34-.07-.28C330.2,159.14,339.13,158.67,344.1,157.38Z" style="fill:#100e3a"></path><path d="M324.93,150.81c5.76,1.76,11.5,1.5,17.37.38.07,0,.09.1,0,.13-2.72,1.33-6.53,1.65-9.52,1.65a15.9,15.9,0,0,1-7.94-2C324.77,151,324.81,150.77,324.93,150.81Z" style="fill:#100e3a"></path><path d="M223.63,127.27l20.87,8.65s5.21-14,7.26-23.61.11-15.08-11.17-4.49A121.51,121.51,0,0,0,223.63,127.27Z" style="fill:#263238"></path></g><g id="freepik--Hearts--inject-3"><path d="M307.43,61.73c-.72,4.49-4.59,8.24-4.59,8.24s-5.32-.88-8.46-4.18c-2.63-2.74-2.7-6.57-.4-8.13,3.3-2.24,6.21,3.81,6.21,3.81s-1.05-6.63,2.94-6.67C305.91,54.78,308,58,307.43,61.73Z" style="fill:#FFC727"></path><path d="M289.4,81.06a12.47,12.47,0,0,1-6.34,2.6,12.48,12.48,0,0,1-2.9-6.2c-.25-2.74,1.44-4.95,3.45-4.79,2.88.22,1.8,5,1.8,5s2.41-4.23,4.68-2.45C291.68,76.44,291.43,79.2,289.4,81.06Z" style="fill:#FFC727"></path><path d="M286.86,42a7.45,7.45,0,0,1-2.78,3,7.48,7.48,0,0,1-3.16-2.62c-.84-1.43-.48-3.07.65-3.5,1.62-.61,2.25,2.25,2.25,2.25s.23-2.92,1.92-2.53C286.92,38.86,287.5,40.43,286.86,42Z" style="fill:#FFC727"></path></g></svg>